<svg width="106" height="106" viewBox="0 0 106 106" fill="none" xmlns="http://www.w3.org/2000/svg">
<g id="instagram-new-2022-seeklogo.com 1" clip-path="url(#clip0_169_55)">
<g id="Group">
<path id="Vector" d="M53.0173 0C30.8903 0 24.4189 0.0228356 23.161 0.1272C18.6202 0.504753 15.7947 1.21992 12.7163 2.75293C10.344 3.9313 8.47302 5.29717 6.62652 7.21186C3.26371 10.7036 1.22563 14.9994 0.487826 20.1058C0.129142 22.5848 0.0247774 23.0903 0.00358406 35.7527C-0.00454873 39.9735 0.00358406 45.5284 0.00358406 52.9792C0.00358406 75.0943 0.0280224 81.5608 0.134029 82.8167C0.500886 87.2364 1.19381 90.0171 2.66124 93.0588C5.46565 98.8811 10.8217 103.252 17.1316 104.883C19.3164 105.445 21.7295 105.755 24.8274 105.902C26.1399 105.959 39.5178 106 52.9039 106C66.2901 106 79.6761 105.984 80.956 105.918C84.5431 105.75 86.626 105.47 88.929 104.875C95.2797 103.236 100.538 98.93 103.399 93.0261C104.838 90.0578 105.568 87.1711 105.898 82.9822C105.97 82.0689 106 67.5073 106 52.9654C106 38.4209 105.967 23.8862 105.896 22.9729C105.561 18.7163 104.832 15.854 103.346 12.8287C102.128 10.3522 100.774 8.50269 98.8097 6.61172C95.3034 3.26181 91.0152 1.22316 85.9053 0.486004C83.4295 0.128001 82.9363 0.0219946 70.2676 0H53.0173Z" fill="url(#paint0_radial_169_55)"/>
<path id="Vector_2" d="M53.0173 0C30.8903 0 24.4189 0.0228356 23.161 0.1272C18.6202 0.504753 15.7947 1.21992 12.7163 2.75293C10.344 3.9313 8.47302 5.29717 6.62652 7.21186C3.26371 10.7036 1.22563 14.9994 0.487826 20.1058C0.129142 22.5848 0.0247774 23.0903 0.00358406 35.7527C-0.00454873 39.9735 0.00358406 45.5284 0.00358406 52.9792C0.00358406 75.0943 0.0280224 81.5608 0.134029 82.8167C0.500886 87.2364 1.19381 90.0171 2.66124 93.0588C5.46565 98.8811 10.8217 103.252 17.1316 104.883C19.3164 105.445 21.7295 105.755 24.8274 105.902C26.1399 105.959 39.5178 106 52.9039 106C66.2901 106 79.6761 105.984 80.956 105.918C84.5431 105.75 86.626 105.47 88.929 104.875C95.2797 103.236 100.538 98.93 103.399 93.0261C104.838 90.0578 105.568 87.1711 105.898 82.9822C105.97 82.0689 106 67.5073 106 52.9654C106 38.4209 105.967 23.8862 105.896 22.9729C105.561 18.7163 104.832 15.854 103.346 12.8287C102.128 10.3522 100.774 8.50269 98.8097 6.61172C95.3034 3.26181 91.0152 1.22316 85.9053 0.486004C83.4295 0.128001 82.9363 0.0219946 70.2676 0H53.0173Z" fill="url(#paint1_radial_169_55)"/>
<path id="Vector_3" d="M53.0173 0C30.8903 0 24.4189 0.0228356 23.161 0.1272C18.6202 0.504753 15.7947 1.21992 12.7163 2.75293C10.344 3.9313 8.47302 5.29717 6.62652 7.21186C3.26371 10.7036 1.22563 14.9994 0.487826 20.1058C0.129142 22.5848 0.0247774 23.0903 0.00358406 35.7527C-0.00454873 39.9735 0.00358406 45.5284 0.00358406 52.9792C0.00358406 75.0943 0.0280224 81.5608 0.134029 82.8167C0.500886 87.2364 1.19381 90.0171 2.66124 93.0588C5.46565 98.8811 10.8217 103.252 17.1316 104.883C19.3164 105.445 21.7295 105.755 24.8274 105.902C26.1399 105.959 39.5178 106 52.9039 106C66.2901 106 79.6761 105.984 80.956 105.918C84.5431 105.75 86.626 105.47 88.929 104.875C95.2797 103.236 100.538 98.93 103.399 93.0261C104.838 90.0578 105.568 87.1711 105.898 82.9822C105.97 82.0689 106 67.5073 106 52.9654C106 38.4209 105.967 23.8862 105.896 22.9729C105.561 18.7163 104.832 15.854 103.346 12.8287C102.128 10.3522 100.774 8.50269 98.8097 6.61172C95.3034 3.26181 91.0152 1.22316 85.9053 0.486004C83.4295 0.128001 82.9363 0.0219946 70.2676 0H53.0173Z" fill="url(#paint2_radial_169_55)"/>
<path id="Vector_4" d="M53.0173 0C30.8903 0 24.4189 0.0228356 23.161 0.1272C18.6202 0.504753 15.7947 1.21992 12.7163 2.75293C10.344 3.9313 8.47302 5.29717 6.62652 7.21186C3.26371 10.7036 1.22563 14.9994 0.487826 20.1058C0.129142 22.5848 0.0247774 23.0903 0.00358406 35.7527C-0.00454873 39.9735 0.00358406 45.5284 0.00358406 52.9792C0.00358406 75.0943 0.0280224 81.5608 0.134029 82.8167C0.500886 87.2364 1.19381 90.0171 2.66124 93.0588C5.46565 98.8811 10.8217 103.252 17.1316 104.883C19.3164 105.445 21.7295 105.755 24.8274 105.902C26.1399 105.959 39.5178 106 52.9039 106C66.2901 106 79.6761 105.984 80.956 105.918C84.5431 105.75 86.626 105.47 88.929 104.875C95.2797 103.236 100.538 98.93 103.399 93.0261C104.838 90.0578 105.568 87.1711 105.898 82.9822C105.97 82.0689 106 67.5073 106 52.9654C106 38.4209 105.967 23.8862 105.896 22.9729C105.561 18.7163 104.832 15.854 103.346 12.8287C102.128 10.3522 100.774 8.50269 98.8097 6.61172C95.3034 3.26181 91.0152 1.22316 85.9053 0.486004C83.4295 0.128001 82.9363 0.0219946 70.2676 0H53.0173Z" fill="url(#paint3_radial_169_55)"/>
<path id="Vector_5" d="M53.0215 13.6106C42.3179 13.6106 40.9747 13.6574 36.7707 13.8485C32.5751 14.0405 29.7112 14.7043 27.2052 15.6782C24.6131 16.6841 22.4142 18.0296 20.2236 20.2194C18.0314 22.4085 16.6848 24.6056 15.6749 27.195C14.6978 29.6999 14.0327 32.5625 13.8439 36.7535C13.6559 40.9542 13.6066 42.2974 13.6066 52.9929C13.6066 63.6885 13.6542 65.0267 13.8447 69.2275C14.0377 73.42 14.7019 76.2818 15.6757 78.7859C16.6832 81.3761 18.0297 83.5733 20.2212 85.7623C22.411 87.9529 24.6098 89.3018 27.2003 90.3077C29.7078 91.2816 32.5726 91.9453 36.7675 92.1374C40.9714 92.3285 42.3138 92.3753 53.0165 92.3753C63.7209 92.3753 65.0601 92.3285 69.264 92.1373C73.4597 91.9453 76.3269 91.2816 78.8344 90.3076C81.4257 89.3018 83.6213 87.9529 85.8111 85.7623C88.0033 83.5733 89.3499 81.3761 90.3598 78.7867C91.3287 76.2818 91.9938 73.4192 92.1908 69.2283C92.3797 65.0275 92.4289 63.6885 92.4289 52.9929C92.4289 42.2973 92.3797 40.9551 92.1908 36.7543C91.9938 32.5617 91.3287 29.6999 90.3598 27.1959C89.3499 24.6056 88.0033 22.4084 85.8111 20.2194C83.6188 18.0288 81.4265 16.6832 78.832 15.6782C76.3195 14.7043 73.4539 14.0405 69.2582 13.8485C65.0543 13.6574 63.716 13.6106 53.0092 13.6106H53.0215ZM49.4859 20.7076C50.5353 20.706 51.7061 20.7076 53.0215 20.7076C63.5444 20.7076 64.7916 20.7454 68.947 20.9341C72.7897 21.1097 74.8752 21.7512 76.2644 22.2903C78.1037 23.0041 79.4149 23.8574 80.7935 25.2358C82.1729 26.6142 83.0268 27.9269 83.7428 29.7647C84.2822 31.1513 84.9251 33.2353 85.1 37.0751C85.2889 41.2266 85.3299 42.4737 85.3299 52.9839C85.3299 63.494 85.2889 64.7412 85.1 68.8927C84.9243 72.7325 84.2822 74.8165 83.7428 76.2031C83.0285 78.0409 82.1729 79.3496 80.7935 80.7271C79.4141 82.1055 78.1045 82.9588 76.2644 83.6726C74.8768 84.2141 72.7897 84.854 68.947 85.0296C64.7924 85.2183 63.5444 85.2594 53.0215 85.2594C42.4977 85.2594 41.2505 85.2183 37.0959 85.0296C33.2533 84.8524 31.1678 84.2108 29.7777 83.6718C27.9385 82.958 26.6247 82.1047 25.2453 80.7263C23.8659 79.3479 23.012 78.0385 22.296 76.1998C21.7566 74.8132 21.1137 72.7292 20.9388 68.8894C20.75 64.7379 20.7122 63.4908 20.7122 52.9741C20.7122 42.4574 20.75 41.2168 20.9388 37.0652C21.1145 33.2254 21.7566 31.1415 22.296 29.7533C23.0103 27.9154 23.8659 26.6027 25.2453 25.2243C26.6247 23.8459 27.9385 22.9926 29.7777 22.2772C31.1669 21.7357 33.2533 21.0957 37.0959 20.9193C40.7316 20.7552 42.1406 20.706 49.4859 20.6977L49.4859 20.7076ZM74.0591 27.2467C71.448 27.2467 69.3296 29.3611 69.3296 31.971C69.3296 34.5801 71.448 36.6969 74.0591 36.6969C76.67 36.6969 78.7885 34.5801 78.7885 31.971C78.7885 29.3619 76.67 27.2451 74.059 27.2451L74.0591 27.2467ZM53.0215 32.7684C41.8442 32.7684 32.782 41.8239 32.782 52.9929C32.782 64.1619 41.8442 73.2133 53.0215 73.2133C64.1988 73.2133 73.2577 64.1619 73.2577 52.9929C73.2577 41.8239 64.198 32.7684 53.0207 32.7684H53.0215ZM53.0215 39.8655C60.2765 39.8655 66.1587 45.7425 66.1587 52.9929C66.1587 60.2426 60.2765 66.1204 53.0215 66.1204C45.7656 66.1204 39.8843 60.2426 39.8843 52.9929C39.8843 45.7425 45.7656 39.8655 53.0215 39.8655Z" fill="white"/>
</g>
</g>
<defs>
<radialGradient id="paint0_radial_169_55" cx="0" cy="0" r="1" gradientUnits="userSpaceOnUse" gradientTransform="translate(102.577 49.6835) rotate(164.25) scale(67.728 48.7947)">
<stop stop-color="#FF005F"/>
<stop offset="1" stop-color="#FC01D8"/>
</radialGradient>
<radialGradient id="paint1_radial_169_55" cx="0" cy="0" r="1" gradientUnits="userSpaceOnUse" gradientTransform="translate(28.1554 114.164) rotate(-90) scale(84.6112 89.7707)">
<stop stop-color="#FFCC00"/>
<stop offset="0.1242" stop-color="#FFCC00"/>
<stop offset="0.5672" stop-color="#FE4A05"/>
<stop offset="0.6942" stop-color="#FF0F3F"/>
<stop offset="1" stop-color="#FE0657" stop-opacity="0"/>
</radialGradient>
<radialGradient id="paint2_radial_169_55" cx="0" cy="0" r="1" gradientUnits="userSpaceOnUse" gradientTransform="translate(55.6785 104.505) rotate(-59.8703) scale(34.9875 45.5498)">
<stop stop-color="#FFCC00"/>
<stop offset="1" stop-color="#FFCC00" stop-opacity="0"/>
</radialGradient>
<radialGradient id="paint3_radial_169_55" cx="0" cy="0" r="1" gradientUnits="userSpaceOnUse" gradientTransform="translate(14.3819 4.31629) rotate(164.274) scale(66.9767 22.8189)">
<stop stop-color="#780CFF"/>
<stop offset="1" stop-color="#820BFF" stop-opacity="0"/>
</radialGradient>
<clipPath id="clip0_169_55">
<rect width="106" height="106" fill="white"/>
</clipPath>
</defs>
</svg>
